<?xml version="1.0" encoding="UTF-8" standalone="no"?><!DOCTYPE svg PUBLIC "-//W3C//DTD SVG 1.1//EN" "http://www.w3.org/Graphics/SVG/1.1/DTD/svg11.dtd"><svg width="100%" height="100%" viewBox="0 0 128 187" version="1.1" xmlns="http://www.w3.org/2000/svg" xmlns:xlink="http://www.w3.org/1999/xlink" xml:space="preserve" xmlns:serif="http://www.serif.com/" style="fill-rule:evenodd;clip-rule:evenodd;stroke-linejoin:round;stroke-miterlimit:2;"><g id="airplan"><path d="M63.859,177.968c0.024,0.403 0.182,3.011 0.368,5.029c0.063,0.681 0.178,0.963 -0.507,0.963c-0.442,0 -4.74,0.005 -5.519,-0.028c-0.651,-0.028 -0.535,-0.284 -0.479,-0.932c0.24,-2.751 0.751,-10.088 0.804,-10.296c0.077,-0.301 0.578,-0.305 0.634,-0.306c3.918,-0.033 3.981,-0.066 4.199,0.19c0.186,0.218 0.112,0.946 0.5,5.38Z" style="fill:#7564df;"/><path d="M58.788,158.046c0.131,-1.831 0.082,-2.751 0.28,-2.969c0.173,-0.19 0.211,-0.195 3.211,-0.162c0.727,0.008 0.684,0.238 0.727,0.964c0.289,4.857 0.298,4.854 0.315,5.277c0.094,2.362 0.218,3.629 0.243,4.321c0.019,0.536 -0.027,0.659 -0.565,0.662c-0.326,0.002 -3.214,0.017 -4.077,-0.001c-0.415,-0.009 -0.523,0.006 -0.571,-0.408c-0.01,-0.087 0.422,-7.397 0.437,-7.684Z" style="fill:#228cee;"/><path d="M58.826,117.48c0.001,-1.301 -0.007,-1.771 0.03,-1.936c0.072,-0.317 0.436,-0.755 0.446,-0.771c1.307,-2.012 1.451,-2.347 1.748,-2.263c0.15,0.042 1.057,1.493 1.089,1.541c0.689,1.035 0.915,0.983 0.925,2.228c0.035,4.274 0.005,7.73 -0.001,8.402c-0.008,0.932 -0.013,1.013 0.74,1.561c1.789,1.3 1.759,1.336 1.915,1.448c1.542,1.111 1.505,1.154 3.019,2.301c1.866,1.413 1.841,1.436 2.007,1.553c1.61,1.133 1.545,1.214 5.029,3.859c1.019,0.773 1.172,0.786 1.173,1.518c0,0.211 0.003,2.521 -0.004,2.642c-0.018,0.342 -0.231,0.386 -0.269,0.393c-0.173,0.035 -5.536,-1.92 -8.37,-2.873c-4.764,-1.602 -4.762,-1.697 -5.071,-1.613c-0.188,0.051 -0.19,0.131 -0.175,3.369c0.019,3.921 -0.044,3.956 0.19,4.314c0.059,0.091 0.066,0.081 1.01,0.897c2.277,1.968 2.331,1.941 2.406,2.212c0.083,0.297 0.043,2.232 0.039,2.426c-0.015,0.719 -0.434,0.424 -0.627,0.34c-0.136,-0.06 -0.275,-0.114 -0.412,-0.171c-4.458,-1.831 -4.493,-2.115 -5.267,-1.77c-2.437,1.087 -4.208,1.822 -4.337,1.882c-0.109,0.051 -0.926,0.594 -0.873,-0.289c0.065,-1.085 0.013,-1.756 0.032,-2.163c0.014,-0.307 -0.018,-0.366 0.875,-1.13c2.3,-1.969 2.699,-2.17 2.74,-2.711c0.006,-0.08 -0.001,-6.596 -0.009,-6.71c-0.004,-0.05 -0.035,-0.49 -0.387,-0.486c-0.252,0.003 -8.091,2.808 -11.772,4.044c-0.896,0.301 -1.391,0.562 -1.569,0.411c-0.104,-0.088 -0.105,-0.564 -0.105,-0.614c-0.005,-2.187 -0.068,-2.776 0.105,-3.046c0.065,-0.101 0.077,-0.086 1.17,-0.944c0.946,-0.743 0.956,-0.723 1.9,-1.468c2.385,-1.884 7.678,-5.898 8.135,-6.272c1.816,-1.483 2.378,-1.622 2.514,-2.203c0.027,-0.116 0.012,-2.592 0.009,-7.907Z" style="fill:#238bee;"/><path d="M82.874,4.68c0.012,-1.777 -0.021,-1.776 -0.018,-1.931c0.011,-0.478 0.295,-0.42 0.601,-0.057c0.281,0.333 0.316,0.295 0.972,0.958c2.68,2.705 4.485,4.459 4.928,4.911c0.271,0.277 8.774,8.746 8.896,8.866c1.057,1.034 3.236,3.23 3.847,3.833c2.997,2.959 2.97,2.986 3.237,3.236c1.408,1.315 3.316,3.308 4.088,4.078c3.487,3.473 6.973,6.947 10.46,10.42c2.215,2.208 2.219,2.198 2.41,2.391c0.228,0.232 2.402,2.444 2.876,2.884c0.308,0.286 0.395,0.245 0.395,0.488c0.001,0.29 -0.126,0.214 -0.411,0.202c-0.895,-0.037 -23.78,-0.011 -29.756,-0.018c-2.556,-0.003 -5.571,0.272 -8.661,-2.315c-3.79,-3.173 -3.85,-7.105 -3.863,-7.946c-0.014,-0.87 -0.003,-27.6 -0.002,-30Z" style="fill:#238bee;"/><path d="M60.84,0.214c13.028,-0.003 13.024,-0.019 14.156,0.011c0.722,0.02 3.143,0.367 3.252,3.255c0.041,1.079 -0.062,1.28 0.005,5.04c0.01,0.576 -0.001,0.572 0.001,7.2c0.003,7.802 -0.042,7.799 -0.015,15.599c0.014,4.022 0.067,4.421 0.117,4.802c0.661,4.989 2.998,8.016 5.496,10.114c4.672,3.924 10.642,3.344 11.548,3.34c4.41,-0.017 26.055,0.005 28.32,0.007c0.405,0 3.166,-0.354 4.017,2.159c0.24,0.708 0.145,1.01 0.172,17.258c-0,20.8 -0,41.6 -0,62.401c-0.001,6.64 -0.001,13.28 -0.002,19.92c-0.01,22.692 0.015,22.69 -0.057,23.524c-0.132,1.507 -0.695,6.492 -5.627,9.992c-3.57,2.534 -8.392,2.8 -12.142,0.726c-0.814,-0.45 -2.952,-1.448 -6.552,-5.413c-0.458,-0.504 -1.978,-2.445 -2.02,-2.506c-1.392,-1.99 -1.435,-1.958 -2.713,-4.025c-0.621,-1.004 -2.297,-3.643 -4.542,-8.404c-6.143,-13.027 -10.022,-28.018 -12.244,-35.509c-0.65,-2.193 -4.545,-16.355 -5.576,-20.383c-0.301,-1.177 -0.52,-1.517 0.004,-1.924c1.368,-1.063 3.283,-3.31 3.989,-4.378c0.851,-1.289 4.801,-6.712 4.087,-15.289c-0.404,-4.858 -2.532,-8.528 -2.92,-9.195c-0.032,-0.055 -3.296,-6.672 -11.355,-10.109c-6.287,-2.681 -12.761,-1.973 -16.608,-0.652c-1.603,0.551 -7.29,2.437 -11.819,8.618c-0.334,0.456 -1.514,2.289 -1.821,2.944c-0.162,0.346 -5.555,9.719 -0.215,20.598c1.994,4.061 4.969,6.69 5.511,7.169c0.02,0.018 0.02,0.017 0.254,0.223c0.555,0.488 0.498,0.599 0.2,1.759c-0.755,2.936 -4.375,16.364 -6.342,23.009c-4.44,15.001 -11.071,39.268 -23.465,50.637c-0.679,0.623 -3.335,2.865 -5.729,3.186c-4.526,0.607 -8.647,-3.593 -9.792,-8.69c-0.468,-2.085 -0.38,-2.268 -0.386,-13.668c-0.001,-1.79 -0.006,-142.597 0.001,-144.24c0.01,-2.374 0.195,-6.169 3.085,-10.724c0.918,-1.447 2.263,-2.78 2.484,-2.999c3.407,-3.377 7.603,-4.858 10.84,-5.259c1.005,-0.125 1.009,-0.126 15.363,-0.124c9.68,0 19.36,0 29.04,0.001Z" style="fill:#33383d;"/></g></svg>