<?xml version="1.0" encoding="UTF-8"?>
<svg
  width="100%"
  height="100%"
  viewBox="0 0 216 175"
  version="1.1"
  xmlns="http://www.w3.org/2000/svg"
  xml:space="preserve"
  style="fill-rule:evenodd;clip-rule:evenodd;stroke-linejoin:round;stroke-miterlimit:2"
>
  <style>
    .plane {
      fill: #07223c;
    }

    @media (prefers-color-scheme: dark) {
      .plane {
        fill: #e1eefb;
      }
    }
  </style>
  <g id="airplan">
    <path
      class="plane"
      d="M95.574,126.788c-0.47,-0.939 -0.271,-2.076 0.49,-2.8c6.71,-6.378 37.839,-35.965 47.15,-44.815c0.09,-0.085 0.098,-0.225 0.018,-0.32c-0.079,-0.095 -0.218,-0.112 -0.318,-0.039c-10.758,7.868 -47.731,34.907 -54.378,39.768c-0.642,0.47 -1.477,0.59 -2.225,0.319c-5.379,-1.942 -27.473,-9.917 -37.352,-13.483c-0.754,-0.272 -1.26,-0.983 -1.27,-1.784c-0.011,-0.801 0.477,-1.525 1.223,-1.816c19.559,-7.647 93.688,-36.63 115.79,-45.271c1.009,-0.394 2.156,-0.131 2.891,0.665c0.735,0.795 0.908,1.96 0.436,2.935c-9.659,19.932 -40.399,83.367 -49.495,102.138c-0.48,0.991 -1.481,1.622 -2.582,1.629c-1.101,0.007 -2.11,-0.612 -2.602,-1.597c-4.828,-9.651 -14.888,-29.756 -17.776,-35.529Z"
    />
    <path
      d="M46.432,162.438c-1.301,1.283 -3.399,1.268 -4.682,-0.033c-1.283,-1.301 -1.268,-3.399 0.033,-4.682l31.228,-30.798c1.301,-1.283 3.399,-1.268 4.682,0.033c1.283,1.301 1.268,3.399 -0.033,4.682l-31.228,30.798Z"
      style="fill:url(#linear-gradient)"
    />
    <path
      d="M60.085,173.234c-1.302,1.282 -3.4,1.266 -4.682,-0.037c-1.282,-1.302 -1.266,-3.4 0.037,-4.682l26.802,-26.386c1.302,-1.282 3.4,-1.266 4.682,0.037c1.282,1.302 1.266,3.4 -0.037,4.682l-26.802,26.386Z"
      style="fill:url(#linear-gradient)"
    />
    <path
      d="M168.415,37.287c26.539,1.644 47.585,23.718 47.585,50.668c0,28.019 -22.748,50.767 -50.767,50.767l-9.703,0c-3.289,-0 -5.959,-2.67 -5.959,-5.959c0,-3.289 2.67,-5.959 5.959,-5.959l9.703,-0c21.441,0 38.848,-17.407 38.848,-38.848c0,-21.441 -17.407,-38.848 -38.848,-38.848c-0.266,0 -0.532,0.003 -0.797,0.008c-2.571,0.052 -4.885,-1.552 -5.74,-3.977c-6.808,-19.31 -25.224,-33.165 -46.852,-33.165c-23.93,-0 -43.931,16.961 -48.621,39.508c-0.327,1.574 -1.277,2.95 -2.634,3.813c-1.356,0.864 -3.004,1.143 -4.57,0.773c-2.651,-0.626 -5.415,-0.956 -8.256,-0.956c-19.784,0 -35.846,16.062 -35.846,35.846c0,19.601 15.767,35.55 35.299,35.842c3.289,0.049 5.919,2.759 5.87,6.048c-0.049,3.289 -2.759,5.919 -6.048,5.87c-26.028,-0.389 -47.04,-21.639 -47.04,-47.759c0,-26.362 21.402,-47.764 47.764,-47.764c1.767,0 3.511,0.096 5.228,0.284c7.757,-25.135 31.185,-43.423 58.852,-43.423c25.34,-0 47.126,15.34 56.57,37.232Z"
      style="fill:url(#linear-gradient)"
    />
  </g>
  <defs>
    <linearGradient
      id="linear-gradient"
      x1="0"
      y1="0"
      x2="1"
      y2="0"
      gradientUnits="userSpaceOnUse"
      gradientTransform="matrix(-1.589127,174.129549,-174.129549,-1.589127,114.069442,0.055225)"
    >
      <stop offset="0" style="stop-color:#157ffd;stop-opacity:1" />
      <stop offset="0.64" style="stop-color:#2488fd;stop-opacity:1" />
      <stop offset="1" style="stop-color:#76b9fe;stop-opacity:1" />
    </linearGradient>
  </defs>
</svg>
